<svg width="671" height="671" viewBox="0 0 671 671" fill="none" xmlns="http://www.w3.org/2000/svg">
<g clip-path="url(#clip0_559_83)">
<path d="M551 0H120C53.7258 0 0 53.7258 0 120V551C0 617.274 53.7258 671 120 671H551C617.274 671 671 617.274 671 551V120C671 53.7258 617.274 0 551 0Z" fill="url(#paint0_linear_559_83)"/>
<path d="M335.5 360C556.414 360 735.5 270.457 735.5 160C735.5 49.5431 556.414 -40 335.5 -40C114.586 -40 -64.5 49.5431 -64.5 160C-64.5 270.457 114.586 360 335.5 360Z" fill="white" fill-opacity="0.08"/>
<path d="M464 130C534.72 130 592 187.336 592 258.125V437.5C592 465.768 569.04 488.75 540.8 488.75H536.32C525.76 518.619 497.44 540 464 540C430.56 540 402.16 518.619 391.68 488.75H280.4C269.84 518.619 241.44 540 208.08 540C174.72 540 146.32 518.619 135.76 488.75H131.2C102.96 488.75 80 465.768 80 437.5V206.875C80 164.434 114.4 130 156.8 130H464ZM208 424.688C186.8 424.688 169.6 441.904 169.6 463.125C169.6 484.346 186.8 501.562 208 501.562C229.2 501.562 246.4 484.346 246.4 463.125C246.4 441.904 229.2 424.688 208 424.688ZM464 424.688C442.8 424.688 425.6 441.904 425.6 463.125C425.6 484.346 442.8 501.562 464 501.562C485.2 501.562 502.4 484.346 502.4 463.125C502.4 441.904 485.2 424.688 464 424.688ZM464 181.25C449.84 181.25 438.4 192.701 438.4 206.875V360.625C438.4 374.799 449.84 386.25 464 386.25H515.2C529.36 386.25 540.8 374.799 540.8 360.625V258.125C540.8 215.684 506.4 181.25 464 181.25ZM278.4 309.375H361.6C375.76 309.375 387.2 297.924 387.2 283.75V206.875C387.2 192.701 375.76 181.25 361.6 181.25H278.4V309.375ZM156.8 181.25C142.64 181.25 131.2 192.701 131.2 206.875V283.75C131.2 297.924 142.64 309.375 156.8 309.375H240V181.25H156.8Z" fill="url(#paint1_linear_559_83)" stroke="white" stroke-width="5" stroke-linejoin="round"/>
</g>
<defs>
<linearGradient id="paint0_linear_559_83" x1="40" y1="40" x2="640" y2="640" gradientUnits="userSpaceOnUse">
<stop stop-color="#3B82F6"/>
<stop offset="1" stop-color="#2563EB"/>
</linearGradient>
<linearGradient id="paint1_linear_559_83" x1="100" y1="100" x2="600" y2="600" gradientUnits="userSpaceOnUse">
<stop stop-color="white" stop-opacity="0.95"/>
<stop offset="1" stop-color="#E0E7FF" stop-opacity="0.9"/>
</linearGradient>
<clipPath id="clip0_559_83">
<rect width="671" height="671" fill="white"/>
</clipPath>
</defs>
</svg>